<svg version="1" xmlns="http://www.w3.org/2000/svg" width="682.667" height="682.667" viewBox="0 0 512.000000 512.000000"><path d="M0 256v256h512V0H0v256zm160.7-129.1c1.7.7 3.9 2.3 4.7 3.7 2.1 3 84.4 239.2 85.9 246.1 2.3 10.9-.7 12.3-26.3 12.3-19.2 0-24.6-.8-27.2-4-.9-1.1-5.8-14.4-10.8-29.5l-9.2-27.5h-48.9c-38.3 0-49.1.3-49.4 1.2-.2.7-4.3 13.4-9.2 28.3-11 33.7-7.9 31-35 31-18.9 0-19.2 0-21.7-2.4-3.1-2.9-3.2-5.4-.7-14.1 2.7-9.6 81.7-236.4 83.6-239.9 1.6-3.2 4.2-5 9-6.2 5-1.3 51.5-.4 55.2 1zm251 0c1.7.7 3.9 2.3 4.7 3.7 2.1 3 84.4 239.2 85.9 246.1 2.3 10.9-.7 12.3-26.3 12.3-19.2 0-24.6-.8-27.2-4-.9-1.1-5.8-14.4-10.8-29.5l-9.2-27.5h-48.9c-38.3 0-49.1.3-49.4 1.2-.2.7-4.3 13.4-9.2 28.3-11 33.7-7.9 31-35 31-18.9 0-19.2 0-21.7-2.4-3.1-2.9-3.2-5.4-.7-14.1 2.7-9.6 81.7-236.4 83.6-239.9 1.6-3.2 4.2-5 9-6.2 5-1.3 51.5-.4 55.2 1z"/><path d="M110.6 230.2c-9.9 29.9-18.1 54.9-18.4 55.5-.3 1 7.3 1.3 36.2 1.3 20.1 0 36.6-.3 36.6-.8 0-.4-8.2-25.4-18.3-55.5l-18.3-54.9-17.8 54.4zM361.6 230.2c-9.9 29.9-18.1 54.9-18.4 55.5-.3 1 7.3 1.3 36.2 1.3 20.1 0 36.6-.3 36.6-.8 0-.4-8.2-25.4-18.3-55.5l-18.3-54.9-17.8 54.4z"/></svg>